{
  "accessors": [
    {
      "bufferView": 2,
      "componentType": 5126,
      "count": 17050,
      "max": [
        225.21572875976563,
        184.23143005371094,
        53.38697052001953
      ],
      "min": [
        -250.52978515625,
        -186.13949584960938,
        -69.14134216308594
      ],
      "type": "VEC3"
    },
    {
      "bufferView": 2,
      "byteOffset": 204600,
      "componentType": 5126,
      "count": 17050,
      "max": [
        0.9998335242271423,
        0.9998434782028198,
        0.9998509883880615
      ],
      "min": [
        -0.99988853931427,
        -0.9997352361679077,
        -1.0
      ],
      "type": "VEC3"
    },
    {
      "bufferView": 1,
      "componentType": 5126,
      "count": 17050,
      "max": [
        0.9897388815879822,
        0.9469221234321594
      ],
      "min": [
        0.018545931205153465,
        0.012737387791275978
      ],
      "type": "VEC2"
    },
    {
      "bufferView": 0,
      "componentType": 5125,
      "count": 93792,
      "type": "SCALAR"
    },
    {
      "bufferView": 2,
      "byteOffset": 409200,
      "componentType": 5126,
      "count": 2297,
      "max": [
        133.24403381347656,
        -3.092444658279419,
        -38.715545654296875
      ],
      "min": [
        -61.48923873901367,
        -140.86813354492188,
        -69.16056823730469
      ],
      "type": "VEC3"
    },
    {
      "bufferView": 2,
      "byteOffset": 436764,
      "componentType": 5126,
      "count": 2297,
      "max": [
        0.9422017335891724,
        0.8334733843803406,
        0.9656539559364319
      ],
      "min": [
        -0.9993268251419067,
        -0.9996925592422485,
        -1.0
      ],
      "type": "VEC3"
    },
    {
      "bufferView": 1,
      "byteOffset": 136400,
      "componentType": 5126,
      "count": 2297,
      "max": [
        0.9699549674987793,
        0.9840007424354553
      ],
      "min": [
        0.025975488126277924,
        0.1732078492641449
      ],
      "type": "VEC2"
    },
    {
      "bufferView": 0,
      "byteOffset": 375168,
      "componentType": 5125,
      "count": 12084,
      "type": "SCALAR"
    }
  ],
  "asset": {
    "extras": {
      "author": "Stephengury (https://sketchfab.com/Stephengury)",
      "license": "CC-BY-4.0 (http://creativecommons.org/licenses/by/4.0/)",
      "source": "https://sketchfab.com/3d-models/cat-895ad67aa2404f39b2ecedc31df67b02",
      "title": "Cat"
    },
    "generator": "Sketchfab-15.27.0",
    "version": "2.0"
  },
  "bufferViews": [
    {
      "buffer": 0,
      "byteLength": 423504,
      "name": "floatBufferViews",
      "target": 34963
    },
    {
      "buffer": 0,
      "byteLength": 154776,
      "byteOffset": 423504,
      "byteStride": 8,
      "name": "floatBufferViews",
      "target": 34962
    },
    {
      "buffer": 0,
      "byteLength": 464328,
      "byteOffset": 578280,
      "byteStride": 12,
      "name": "floatBufferViews",
      "target": 34962
    }
  ],
  "buffers": [
    {
      "byteLength": 1042608,
      "uri": "gltf.bin"
    }
  ],
  "extensionsRequired": [
    "KHR_materials_pbrSpecularGlossiness"
  ],
  "extensionsUsed": [
    "KHR_materials_pbrSpecularGlossiness"
  ],
  "images": [
    {
      "uri": "textures/cat1222_diffuse.jpeg"
    },
    {
      "uri": "textures/cat1222_specularGlossiness.png"
    }
  ],
  "materials": [
    {
      "doubleSided": true,
      "extensions": {
        "KHR_materials_pbrSpecularGlossiness": {
          "diffuseFactor": [
            0.8,
            0.8,
            0.8,
            1.0
          ],
          "diffuseTexture": {
            "index": 0
          },
          "glossinessFactor": 1.0,
          "specularFactor": [
            0.0,
            0.0,
            0.0
          ],
          "specularGlossinessTexture": {
            "index": 1
          }
        }
      },
      "name": "cat1222"
    },
    {
      "doubleSided": true,
      "extensions": {
        "KHR_materials_pbrSpecularGlossiness": {
          "diffuseFactor": [
            1.0,
            1.0,
            1.0,
            1.0
          ],
          "diffuseTexture": {
            "index": 0
          },
          "glossinessFactor": 0.4,
          "specularFactor": [
            0.0,
            0.0,
            0.0
          ]
        }
      },
      "name": "cat223"
    }
  ],
  "meshes": [
    {
      "name": "cat_cat1222_0",
      "primitives": [
        {
          "attributes": {
            "NORMAL": 1,
            "POSITION": 0,
            "TEXCOORD_0": 2
          },
          "indices": 3,
          "material": 0,
          "mode": 4
        }
      ]
    },
    {
      "name": "cat_cat223_0",
      "primitives": [
        {
          "attributes": {
            "NORMAL": 5,
            "POSITION": 4,
            "TEXCOORD_0": 6
          },
          "indices": 7,
          "material": 1,
          "mode": 4
        }
      ]
    }
  ],
  "nodes": [
    {
      "children": [
        1
      ],
      "matrix": [
        1.0,
        0.0,
        0.0,
        0.0,
        0.0,
        2.220446049250313e-16,
        -1.0,
        0.0,
        0.0,
        1.0,
        2.220446049250313e-16,
        0.0,
        0.0,
        0.0,
        0.0,
        1.0
      ],
      "name": "Sketchfab_model"
    },
    {
      "children": [
        2
      ],
      "matrix": [
        0.0010000000474974513,
        0.0,
        0.0,
        0.0,
        0.0,
        0.0,
        0.0010000000474974513,
        0.0,
        0.0,
        -0.0010000000474974513,
        0.0,
        0.0,
        0.0,
        0.0,
        0.0,
        1.0
      ],
      "name": "cat.FBX"
    },
    {
      "children": [
        3,
        7
      ],
      "name": "RootNode"
    },
    {
      "children": [
        4
      ],
      "matrix": [
        0.9426206456412558,
        -3.2725736234677777e-18,
        0.03459121325799281,
        0.0,
        0.03459121325799281,
        1.0472235595096889e-16,
        -0.9426206456412558,
        0.0,
        -3.2725736234677777e-18,
        0.9432551264762878,
        1.0472235595096889e-16,
        0.0,
        78.759765625,
        65.04387664794922,
        47.3538818359375,
        1.0
      ],
      "name": "cat"
    },
    {
      "children": [
        5,
        6
      ],
      "matrix": [
        1.0,
        0.0,
        -0.0,
        0.0,
        0.0,
        1.0,
        0.0,
        0.0,
        0.0,
        0.0,
        1.0,
        0.0,
        0.0,
        0.0,
        -0.00048828125,
        1.0
      ],
      "name": "Object_4"
    },
    {
      "mesh": 0,
      "name": "cat_cat1222_0"
    },
    {
      "mesh": 1,
      "name": "cat_cat223_0"
    },
    {
      "children": [
        8
      ],
      "matrix": [
        0.999994626593234,
        -2.007336258802916e-19,
        0.0032782288904858155,
        0.0,
        2.007336258802916e-19,
        1.0,
        3.290262698273535e-22,
        0.0,
        -0.0032782288904858155,
        3.290262698173739e-22,
        0.999994626593234,
        0.0,
        91.03974151611328,
        201.8472137451172,
        991.783447265625,
        1.0
      ],
      "name": "Camera001"
    },
    {
      "name": "Object_8"
    }
  ],
  "samplers": [
    {
      "magFilter": 9729,
      "minFilter": 9987,
      "wrapS": 10497,
      "wrapT": 10497
    }
  ],
  "scene": 0,
  "scenes": [
    {
      "name": "Sketchfab_Scene",
      "nodes": [
        0
      ]
    }
  ],
  "textures": [
    {
      "sampler": 0,
      "source": 0
    },
    {
      "sampler": 0,
      "source": 1
    }
  ]
}
